PathFileType	4	(x/y/z)	S10_SL_Cal_T01
DataRate	CameraRate	NumFrames	NumMarkers	Units	OrigDataRate	OrigDataStartFrame	OrigNumFrames
240	240	9	51	mm	240	1	2400
Frame#	Time	Sternum			R.Acromium			L.Acromium			Top.Head			R.ASIS			L.ASIS			R.PSIS			L.PSIS			R.Great.Tro			L.Great.Tro			R.Iliac.Crest			L.Iliac.Crest			V.Sacral			R.Thigh.Upper.Post			R.Thigh.Lower.Ant			R.Thigh.Lower.Post			R.Thigh.Upper.Ant			R.Knee.Lat			R.Knee.Med			R.Shank.Upper.Post			R.Shank.Lower.Ant			R.Shank.Lower.Post			R.Shank.Upper.Ant			R.Ankle.Lat			R.Ankle.Med			R.Heel.Upper			R.Heel.Med			R.Heel.Lat			R.Toe.Lat			R.Toe.Med			R.Toe.Tip			L.Thigh.Upper.Post			L.Thigh.Lower.Ant			L.Thigh.Lower.Post			L.Thigh.Upper.Ant			L.Knee.Lat			L.Knee.Med			L.Shank.Upper.Post			L.Shank.Lower.Ant			L.Shank.Lower.Post			L.Shank.Upper.Ant			L.Ankle.Lat			L.Ankle.Med			L.Heel.Upper			L.Heel.Med			L.Heel.Lat			L.Toe.Lat			L.Toe.Med			L.Toe.Tip			Cervical.Spine			Back			
		X1	Y1	Z1	X2	Y2	Z2	X3	Y3	Z3	X4	Y4	Z4	X5	Y5	Z5	X6	Y6	Z6	X7	Y7	Z7	X8	Y8	Z8	X9	Y9	Z9	X10	Y10	Z10	X11	Y11	Z11	X12	Y12	Z12	X13	Y13	Z13	X14	Y14	Z14	X15	Y15	Z15	X16	Y16	Z16	X17	Y17	Z17	X18	Y18	Z18	X19	Y19	Z19	X20	Y20	Z20	X21	Y21	Z21	X22	Y22	Z22	X23	Y23	Z23	X24	Y24	Z24	X25	Y25	Z25	X26	Y26	Z26	X27	Y27	Z27	X28	Y28	Z28	X29	Y29	Z29	X30	Y30	Z30	X31	Y31	Z31	X32	Y32	Z32	X33	Y33	Z33	X34	Y34	Z34	X35	Y35	Z35	X36	Y36	Z36	X37	Y37	Z37	X38	Y38	Z38	X39	Y39	Z39	X40	Y40	Z40	X41	Y41	Z41	X42	Y42	Z42	X43	Y43	Z43	X44	Y44	Z44	X45	Y45	Z45	X46	Y46	Z46	X47	Y47	Z47	X48	Y48	Z48	X49	Y49	Z49	X50	Y50	Z50	X51	Y51	Z51	

1	0	777.03	1307.9	325.48	629.58	1448.8	477.48	630.78	1482.6	173.1	643.14	1774.2	348.06	726.75	1007.6	431.96	730.38	1027.9	196.05	531.4	1056.5	343.55	538.78	1062.3	262.09	643.9	936.76	500.37	660.54	963.33	135.82	638.04	1098.1	477.2	666.23	1110.6	168.85	507.91	1029.8	305.2	626.19	727.29	505	666.76	640.29	467.71	604.18	640.86	497.79	691.49	728.41	470.22	581.39	517.39	461.82	570.68	514.74	334.63	512.6	296.23	474.13	583.74	237.44	464.65	517.92	222.34	472.57	582.98	314.55	467.25	543.24	108.15	455.29	564.08	109.68	385.17	494.38	63.652	406.02	507.79	36.936	379.97	494.51	39.58	440.31	659.66	39.204	508.49	702.34	44.689	404.02	754.78	60.906	454.27	574.3	709.25	114.85	627.98	613.24	132.09	553.71	617.17	125.14	651.89	700.1	122.21	575.64	523.15	128.7	565.72	505.95	255.77	516.25	308.48	114.38	588.42	225.83	129.87	524.77	231.65	121.8	580.46	302.14	122.03	565.78	102.59	135.97	578.33	110.87	220.21	500.32	76.546	175.83	511.86	45.611	209.46	505.65	42.632	149.82	684.43	41.165	108.95	711.45	47.315	215.46	767.06	60.306	169.72	562.06	1507.5	335.55	498.68	1291.6	314.91
2	0.0041667	776.96	1307.8	325.38	629.62	1448.9	477.55	630.87	1482.7	173.17	643.13	1774.2	348.13	726.74	1007.5	431.88	730.32	1027.9	196.08	531.39	1056.5	343.58	538.81	1062.4	262.15	643.94	936.81	500.39	660.57	963.37	135.82	638.06	1098.1	477.24	666.3	1110.7	168.89	507.9	1029.9	305.26	626.25	727.35	505.01	666.77	640.28	467.7	604.16	640.91	497.81	691.5	728.4	470.2	581.4	517.38	461.81	570.7	514.75	334.64	512.6	296.25	474.18	583.66	237.47	464.73	517.64	222.39	472.48	583.01	314.54	467.3	543.19	108.2	455.31	564.24	110.05	384.69	494.34	63.709	406.03	507.79	36.959	380.02	494.52	39.622	440.35	659.66	39.214	508.5	702.32	44.67	404.05	754.78	60.903	454.27	574.31	709.3	114.9	628.22	613.31	131.87	553.76	617.09	125.24	651.91	700.1	122.21	575.67	523.15	128.69	565.88	506.01	255.77	516.26	308.51	114.44	588.45	225.81	129.87	524.75	231.64	121.88	580.49	302.13	122.04	565.64	102.73	135.9	578.46	110.94	220.19	500.32	76.579	175.86	511.86	45.639	209.49	505.86	42.944	149.39	684.46	41.188	108.97	711.45	47.299	215.48	767.06	60.297	169.71	562.07	1507.6	335.65	498.72	1291.7	314.98
3	0.0083333	776.88	1307.6	325.29	629.66	1448.9	477.62	630.95	1482.8	173.24	643.12	1774.2	348.2	726.74	1007.4	431.8	730.26	1027.9	196.11	531.38	1056.5	343.6	538.84	1062.5	262.22	643.98	936.85	500.42	660.61	963.41	135.82	638.09	1098.2	477.28	666.36	1110.8	168.92	507.9	1029.9	305.32	626.31	727.41	505.01	666.79	640.26	467.69	604.14	640.96	497.84	691.51	728.4	470.18	581.41	517.37	461.8	570.72	514.76	334.65	512.6	296.27	474.22	583.58	237.49	464.8	517.37	222.43	472.4	583.04	314.54	467.34	543.12	108.24	455.33	564.38	110.42	384.22	494.29	63.765	406.04	507.8	36.982	380.07	494.52	39.663	440.4	659.67	39.223	508.51	702.3	44.651	404.09	754.78	60.901	454.26	574.31	709.35	114.95	628.45	613.37	131.66	553.81	617.01	125.35	651.92	700.1	122.2	575.7	523.15	128.69	566.03	506.07	255.78	516.27	308.53	114.5	588.49	225.79	129.86	524.74	231.62	121.95	580.51	302.12	122.04	565.52	102.87	135.83	578.59	111	220.18	500.32	76.611	175.89	511.87	45.666	209.51	506.05	43.26	148.96	684.49	41.21	108.98	711.46	47.283	215.51	767.05	60.287	169.71	562.09	1507.6	335.76	498.77	1291.8	315.06
4	0.0125	776.81	1307.5	325.21	629.7	1448.9	477.69	631.04	1482.8	173.31	643.11	1774.2	348.28	726.73	1007.3	431.72	730.2	1027.8	196.14	531.37	1056.5	343.63	538.87	1062.6	262.28	644.02	936.9	500.45	660.64	963.44	135.83	638.11	1098.2	477.32	666.42	1110.9	168.95	507.89	1030	305.37	626.36	727.46	505.02	666.81	640.25	467.68	604.12	641	497.86	691.52	728.39	470.16	581.43	517.36	461.79	570.73	514.77	334.66	512.6	296.29	474.26	583.5	237.52	464.88	517.11	222.48	472.32	583.07	314.53	467.39	543.05	108.29	455.34	564.49	110.78	383.74	494.25	63.818	406.05	507.81	37.003	380.12	494.53	39.703	440.44	659.68	39.232	508.52	702.28	44.633	404.12	754.78	60.898	454.26	574.32	709.4	115	628.68	613.44	131.46	553.86	616.93	125.45	651.94	700.1	122.2	575.73	523.15	128.68	566.18	506.13	255.79	516.28	308.55	114.56	588.52	225.77	129.86	524.73	231.61	122.03	580.53	302.12	122.05	565.39	103.01	135.76	578.71	111.05	220.16	500.32	76.642	175.92	511.87	45.692	209.53	506.25	43.58	148.51	684.52	41.232	109	711.46	47.269	215.53	767.05	60.277	169.71	562.1	1507.6	335.86	498.81	1292	315.12
5	0.016667	776.75	1307.4	325.13	629.74	1449	477.75	631.13	1482.9	173.38	643.09	1774.3	348.36	726.72	1007.2	431.65	730.15	1027.8	196.17	531.35	1056.5	343.65	538.9	1062.7	262.34	644.05	936.94	500.47	660.67	963.48	135.83	638.13	1098.3	477.36	666.47	1111	168.98	507.89	1030	305.43	626.42	727.52	505.03	666.82	640.23	467.67	604.1	641.04	497.88	691.53	728.39	470.14	581.44	517.35	461.78	570.75	514.77	334.67	512.6	296.31	474.3	583.43	237.54	464.95	516.85	222.53	472.25	583.09	314.53	467.44	542.97	108.34	455.34	564.59	111.14	383.28	494.21	63.869	406.06	507.82	37.024	380.17	494.54	39.741	440.48	659.69	39.24	508.52	702.26	44.616	404.14	754.78	60.895	454.25	574.32	709.45	115.04	628.9	613.5	131.26	553.9	616.86	125.54	651.95	700.11	122.2	575.75	523.15	128.68	566.32	506.18	255.79	516.28	308.57	114.62	588.54	225.76	129.85	524.71	231.6	122.1	580.55	302.11	122.05	565.28	103.13	135.69	578.82	111.11	220.15	500.33	76.671	175.94	511.88	45.714	209.56	506.44	43.904	148.06	684.54	41.253	109.02	711.46	47.255	215.55	767.05	60.268	169.71	562.12	1507.7	335.95	498.85	1292.1	315.19
6	0.020833	776.7	1307.3	325.07	629.78	1449	477.82	631.22	1483	173.46	643.08	1774.3	348.44	726.72	1007.2	431.59	730.1	1027.8	196.2	531.34	1056.5	343.67	538.93	1062.7	262.39	644.09	936.98	500.49	660.7	963.51	135.84	638.14	1098.3	477.39	666.53	1111.1	169	507.89	1030.1	305.48	626.46	727.57	505.04	666.84	640.22	467.66	604.09	641.08	497.9	691.54	728.39	470.13	581.45	517.34	461.78	570.76	514.79	334.68	512.6	296.33	474.34	583.37	237.56	465.01	516.62	222.57	472.18	583.12	314.53	467.48	542.87	108.39	455.34	564.65	111.48	382.84	494.18	63.916	406.07	507.82	37.042	380.21	494.55	39.777	440.51	659.69	39.248	508.53	702.25	44.6	404.17	754.78	60.892	454.25	574.33	709.49	115.09	629.1	613.56	131.08	553.94	616.8	125.63	651.97	700.11	122.2	575.78	523.15	128.67	566.45	506.24	255.8	516.29	308.59	114.67	588.57	225.75	129.85	524.7	231.59	122.16	580.57	302.11	122.06	565.17	103.25	135.63	578.93	111.16	220.14	500.33	76.697	175.97	511.88	45.735	209.58	506.63	44.228	147.6	684.56	41.274	109.03	711.46	47.243	215.57	767.04	60.26	169.71	562.14	1507.7	336.05	498.89	1292.1	315.25
7	0.025	776.66	1307.2	325.02	629.81	1449	477.89	631.31	1483.1	173.53	643.07	1774.3	348.52	726.71	1007.1	431.54	730.06	1027.8	196.22	531.33	1056.5	343.69	538.95	1062.8	262.44	644.12	937.02	500.51	660.73	963.54	135.84	638.16	1098.3	477.43	666.58	1111.2	169.03	507.88	1030.1	305.53	626.51	727.61	505.05	666.85	640.21	467.66	604.08	641.11	497.92	691.54	728.39	470.12	581.46	517.33	461.77	570.77	514.8	334.69	512.6	296.35	474.37	583.31	237.58	465.07	516.4	222.61	472.13	583.14	314.53	467.52	542.77	108.44	455.33	564.69	111.8	382.43	494.15	63.958	406.08	507.82	37.059	380.25	494.55	39.81	440.55	659.7	39.255	508.54	702.23	44.586	404.19	754.79	60.889	454.25	574.33	709.53	115.13	629.28	613.61	130.91	553.97	616.75	125.71	651.98	700.11	122.2	575.8	523.15	128.67	566.58	506.28	255.81	516.29	308.6	114.71	588.59	225.73	129.85	524.69	231.58	122.22	580.58	302.11	122.07	565.08	103.35	135.58	579.02	111.21	220.14	500.33	76.721	175.99	511.89	45.751	209.6	506.8	44.546	147.15	684.58	41.293	109.04	711.46	47.232	215.59	767.04	60.252	169.71	562.17	1507.7	336.14	498.93	1292.2	315.3
8	0.029167	776.62	1307.1	324.99	629.85	1449	477.95	631.4	1483.1	173.6	643.06	1774.3	348.6	726.71	1007.1	431.49	730.02	1027.8	196.25	531.33	1056.5	343.71	538.98	1062.9	262.48	644.14	937.05	500.53	660.75	963.56	135.85	638.18	1098.4	477.46	666.63	1111.2	169.05	507.88	1030.1	305.57	626.55	727.65	505.06	666.86	640.21	467.65	604.07	641.14	497.94	691.55	728.39	470.11	581.47	517.33	461.76	570.78	514.81	334.7	512.6	296.37	474.41	583.26	237.6	465.12	516.21	222.64	472.08	583.16	314.52	467.55	542.67	108.49	455.32	564.7	112.09	382.05	494.12	63.996	406.09	507.83	37.073	380.28	494.56	39.839	440.57	659.7	39.262	508.54	702.21	44.574	404.22	754.79	60.885	454.24	574.33	709.57	115.16	629.45	613.66	130.77	554	616.7	125.78	651.98	700.12	122.21	575.81	523.15	128.67	566.68	506.33	255.81	516.29	308.62	114.75	588.61	225.72	129.84	524.68	231.57	122.27	580.6	302.1	122.07	565	103.45	135.53	579.11	111.25	220.14	500.33	76.742	176.01	511.9	45.765	209.61	506.96	44.852	146.71	684.6	41.311	109.05	711.46	47.223	215.61	767.04	60.245	169.7	562.19	1507.8	336.23	498.97	1292.3	315.35
9	0.033333	776.6	1307	324.96	629.88	1449	478.01	631.49	1483.2	173.67	643.06	1774.3	348.69	726.71	1007	431.46	729.99	1027.8	196.27	531.32	1056.5	343.73	539	1062.9	262.52	644.17	937.08	500.55	660.78	963.59	135.86	638.19	1098.4	477.49	666.67	1111.3	169.07	507.88	1030.2	305.61	626.58	727.68	505.07	666.87	640.2	467.65	604.06	641.17	497.96	691.56	728.38	470.1	581.47	517.32	461.76	570.79	514.82	334.7	512.6	296.38	474.43	583.22	237.61	465.16	516.05	222.68	472.04	583.18	314.52	467.58	542.56	108.53	455.3	564.69	112.36	381.71	494.1	64.029	406.09	507.83	37.085	380.31	494.57	39.865	440.6	659.71	39.267	508.55	702.2	44.564	404.24	754.79	60.881	454.24	574.32	709.6	115.2	629.59	613.71	130.64	554.02	616.66	125.84	651.99	700.12	122.21	575.82	523.15	128.66	566.78	506.36	255.82	516.29	308.63	114.79	588.62	225.71	129.84	524.67	231.57	122.31	580.6	302.1	122.08	564.93	103.53	135.49	579.18	111.29	220.13	500.33	76.759	176.03	511.91	45.776	209.63	507.1	45.14	146.31	684.61	41.327	109.06	711.46	47.215	215.62	767.03	60.239	169.7	562.22	1507.8	336.31	499.01	1292.4	315.39
